<svg width="550" height="550" viewBox="0 0 550 550" fill="none" xmlns="http://www.w3.org/2000/svg">
<rect width="550" height="550" fill="#D9D9D9"/>
<path d="M265.489 146.271C268.483 137.057 281.517 137.057 284.511 146.271L308.228 219.265C309.567 223.386 313.406 226.175 317.739 226.175L394.49 226.175C404.177 226.175 408.205 238.571 400.368 244.265L338.275 289.379C334.77 291.925 333.303 296.439 334.642 300.559L358.36 373.554C361.353 382.767 350.808 390.429 342.971 384.735L280.878 339.621C277.373 337.075 272.627 337.075 269.122 339.621L207.029 384.735C199.192 390.429 188.647 382.767 191.64 373.554L215.358 300.559C216.697 296.439 215.23 291.925 211.725 289.379L149.632 244.265C141.795 238.571 145.823 226.175 155.51 226.175L232.261 226.175C236.594 226.175 240.433 223.386 241.772 219.265L265.489 146.271Z" fill="#2E88F2"/>
</svg>
